<mxfile host="app.diagrams.net" modified="2022-07-20T09:15:12.711Z" agent="5.0 (Windows NT 10.0; Win64; x64) AppleWebKit/537.36 (KHTML, like Gecko) Chrome/103.0.5060.114 Safari/537.36 Edg/103.0.1264.62" etag="z6r1ZPLR5SbIenKspxS8" version="20.1.1" type="github">
  <diagram id="TVbysb9BhAZCJ-ZdXqTq" name="Page-1">
    <mxGraphModel dx="526" dy="483" grid="1" gridSize="10" guides="1" tooltips="1" connect="1" arrows="1" fold="1" page="1" pageScale="1" pageWidth="850" pageHeight="1100" math="0" shadow="0">
      <root>
        <mxCell id="0" />
        <mxCell id="1" parent="0" />
        <mxCell id="3gSHG1WFgtymDXRMDP2_-1" value="The principles violated are :&lt;br&gt;&lt;b&gt;SRP &lt;/b&gt;: Single Responsibility&lt;br&gt;&lt;b&gt;OCP&lt;/b&gt;: Open Closed Principle&lt;br&gt;Increases the Cyclomatic Complexity of the method when&amp;nbsp;" style="text;html=1;strokeColor=none;fillColor=none;align=center;verticalAlign=middle;whiteSpace=wrap;rounded=0;" parent="1" vertex="1">
          <mxGeometry x="40" y="30" width="390" height="80" as="geometry" />
        </mxCell>
        <mxCell id="3gSHG1WFgtymDXRMDP2_-2" value="IPaymentType" style="swimlane;fontStyle=1;align=center;verticalAlign=top;childLayout=stackLayout;horizontal=1;startSize=26;horizontalStack=0;resizeParent=1;resizeParentMax=0;resizeLast=0;collapsible=1;marginBottom=0;" parent="1" vertex="1">
          <mxGeometry x="190" y="150" width="160" height="86" as="geometry" />
        </mxCell>
        <mxCell id="3gSHG1WFgtymDXRMDP2_-3" value="paymentTypeName" style="text;strokeColor=none;fillColor=none;align=left;verticalAlign=top;spacingLeft=4;spacingRight=4;overflow=hidden;rotatable=0;points=[[0,0.5],[1,0.5]];portConstraint=eastwest;" parent="3gSHG1WFgtymDXRMDP2_-2" vertex="1">
          <mxGeometry y="26" width="160" height="26" as="geometry" />
        </mxCell>
        <mxCell id="3gSHG1WFgtymDXRMDP2_-4" value="" style="line;strokeWidth=1;fillColor=none;align=left;verticalAlign=middle;spacingTop=-1;spacingLeft=3;spacingRight=3;rotatable=0;labelPosition=right;points=[];portConstraint=eastwest;" parent="3gSHG1WFgtymDXRMDP2_-2" vertex="1">
          <mxGeometry y="52" width="160" height="8" as="geometry" />
        </mxCell>
        <mxCell id="3gSHG1WFgtymDXRMDP2_-5" value="processPayment()" style="text;strokeColor=none;fillColor=none;align=left;verticalAlign=top;spacingLeft=4;spacingRight=4;overflow=hidden;rotatable=0;points=[[0,0.5],[1,0.5]];portConstraint=eastwest;fontStyle=3" parent="3gSHG1WFgtymDXRMDP2_-2" vertex="1">
          <mxGeometry y="60" width="160" height="26" as="geometry" />
        </mxCell>
        <mxCell id="3gSHG1WFgtymDXRMDP2_-6" value="CreditCard" style="swimlane;fontStyle=1;align=center;verticalAlign=top;childLayout=stackLayout;horizontal=1;startSize=26;horizontalStack=0;resizeParent=1;resizeParentMax=0;resizeLast=0;collapsible=1;marginBottom=0;" parent="1" vertex="1">
          <mxGeometry x="390" y="280" width="160" height="60" as="geometry" />
        </mxCell>
        <mxCell id="3gSHG1WFgtymDXRMDP2_-8" value="" style="line;strokeWidth=1;fillColor=none;align=left;verticalAlign=middle;spacingTop=-1;spacingLeft=3;spacingRight=3;rotatable=0;labelPosition=right;points=[];portConstraint=eastwest;" parent="3gSHG1WFgtymDXRMDP2_-6" vertex="1">
          <mxGeometry y="26" width="160" height="8" as="geometry" />
        </mxCell>
        <mxCell id="3gSHG1WFgtymDXRMDP2_-9" value="processPayment()" style="text;strokeColor=none;fillColor=none;align=left;verticalAlign=top;spacingLeft=4;spacingRight=4;overflow=hidden;rotatable=0;points=[[0,0.5],[1,0.5]];portConstraint=eastwest;fontStyle=0" parent="3gSHG1WFgtymDXRMDP2_-6" vertex="1">
          <mxGeometry y="34" width="160" height="26" as="geometry" />
        </mxCell>
        <mxCell id="3gSHG1WFgtymDXRMDP2_-10" value="Google" style="swimlane;fontStyle=1;align=center;verticalAlign=top;childLayout=stackLayout;horizontal=1;startSize=26;horizontalStack=0;resizeParent=1;resizeParentMax=0;resizeLast=0;collapsible=1;marginBottom=0;" parent="1" vertex="1">
          <mxGeometry x="40" y="270" width="160" height="60" as="geometry" />
        </mxCell>
        <mxCell id="3gSHG1WFgtymDXRMDP2_-11" value="" style="line;strokeWidth=1;fillColor=none;align=left;verticalAlign=middle;spacingTop=-1;spacingLeft=3;spacingRight=3;rotatable=0;labelPosition=right;points=[];portConstraint=eastwest;" parent="3gSHG1WFgtymDXRMDP2_-10" vertex="1">
          <mxGeometry y="26" width="160" height="8" as="geometry" />
        </mxCell>
        <mxCell id="3gSHG1WFgtymDXRMDP2_-12" value="processPayment()" style="text;strokeColor=none;fillColor=none;align=left;verticalAlign=top;spacingLeft=4;spacingRight=4;overflow=hidden;rotatable=0;points=[[0,0.5],[1,0.5]];portConstraint=eastwest;fontStyle=0" parent="3gSHG1WFgtymDXRMDP2_-10" vertex="1">
          <mxGeometry y="34" width="160" height="26" as="geometry" />
        </mxCell>
        <mxCell id="3gSHG1WFgtymDXRMDP2_-13" value="Paypal" style="swimlane;fontStyle=1;align=center;verticalAlign=top;childLayout=stackLayout;horizontal=1;startSize=26;horizontalStack=0;resizeParent=1;resizeParentMax=0;resizeLast=0;collapsible=1;marginBottom=0;" parent="1" vertex="1">
          <mxGeometry x="265" y="350" width="160" height="60" as="geometry" />
        </mxCell>
        <mxCell id="3gSHG1WFgtymDXRMDP2_-14" value="" style="line;strokeWidth=1;fillColor=none;align=left;verticalAlign=middle;spacingTop=-1;spacingLeft=3;spacingRight=3;rotatable=0;labelPosition=right;points=[];portConstraint=eastwest;" parent="3gSHG1WFgtymDXRMDP2_-13" vertex="1">
          <mxGeometry y="26" width="160" height="8" as="geometry" />
        </mxCell>
        <mxCell id="3gSHG1WFgtymDXRMDP2_-15" value="processPayment()" style="text;strokeColor=none;fillColor=none;align=left;verticalAlign=top;spacingLeft=4;spacingRight=4;overflow=hidden;rotatable=0;points=[[0,0.5],[1,0.5]];portConstraint=eastwest;fontStyle=0" parent="3gSHG1WFgtymDXRMDP2_-13" vertex="1">
          <mxGeometry y="34" width="160" height="26" as="geometry" />
        </mxCell>
        <mxCell id="3gSHG1WFgtymDXRMDP2_-16" value="Amazon" style="swimlane;fontStyle=1;align=center;verticalAlign=top;childLayout=stackLayout;horizontal=1;startSize=26;horizontalStack=0;resizeParent=1;resizeParentMax=0;resizeLast=0;collapsible=1;marginBottom=0;" parent="1" vertex="1">
          <mxGeometry x="100" y="350" width="160" height="60" as="geometry" />
        </mxCell>
        <mxCell id="3gSHG1WFgtymDXRMDP2_-17" value="" style="line;strokeWidth=1;fillColor=none;align=left;verticalAlign=middle;spacingTop=-1;spacingLeft=3;spacingRight=3;rotatable=0;labelPosition=right;points=[];portConstraint=eastwest;" parent="3gSHG1WFgtymDXRMDP2_-16" vertex="1">
          <mxGeometry y="26" width="160" height="8" as="geometry" />
        </mxCell>
        <mxCell id="3gSHG1WFgtymDXRMDP2_-18" value="processPayment()" style="text;strokeColor=none;fillColor=none;align=left;verticalAlign=top;spacingLeft=4;spacingRight=4;overflow=hidden;rotatable=0;points=[[0,0.5],[1,0.5]];portConstraint=eastwest;fontStyle=0" parent="3gSHG1WFgtymDXRMDP2_-16" vertex="1">
          <mxGeometry y="34" width="160" height="26" as="geometry" />
        </mxCell>
        <mxCell id="3gSHG1WFgtymDXRMDP2_-19" value="" style="endArrow=block;dashed=1;endFill=0;endSize=12;html=1;rounded=0;exitX=0.25;exitY=0;exitDx=0;exitDy=0;entryX=0.2;entryY=1.177;entryDx=0;entryDy=0;entryPerimeter=0;" parent="1" source="3gSHG1WFgtymDXRMDP2_-10" target="3gSHG1WFgtymDXRMDP2_-5" edge="1">
          <mxGeometry width="160" relative="1" as="geometry">
            <mxPoint x="190" y="200" as="sourcePoint" />
            <mxPoint x="350" y="200" as="targetPoint" />
          </mxGeometry>
        </mxCell>
        <mxCell id="3gSHG1WFgtymDXRMDP2_-20" value="" style="endArrow=block;dashed=1;endFill=0;endSize=12;html=1;rounded=0;exitX=0.14;exitY=-0.083;exitDx=0;exitDy=0;entryX=0.735;entryY=1.115;entryDx=0;entryDy=0;entryPerimeter=0;exitPerimeter=0;" parent="1" source="3gSHG1WFgtymDXRMDP2_-6" target="3gSHG1WFgtymDXRMDP2_-5" edge="1">
          <mxGeometry width="160" relative="1" as="geometry">
            <mxPoint x="180" y="280" as="sourcePoint" />
            <mxPoint x="232" y="250.60199999999998" as="targetPoint" />
          </mxGeometry>
        </mxCell>
        <mxCell id="3gSHG1WFgtymDXRMDP2_-21" value="" style="endArrow=block;dashed=1;endFill=0;endSize=12;html=1;rounded=0;exitX=0.5;exitY=0;exitDx=0;exitDy=0;" parent="1" source="3gSHG1WFgtymDXRMDP2_-13" edge="1">
          <mxGeometry width="160" relative="1" as="geometry">
            <mxPoint x="422.4" y="285.02" as="sourcePoint" />
            <mxPoint x="290" y="240" as="targetPoint" />
          </mxGeometry>
        </mxCell>
        <mxCell id="3gSHG1WFgtymDXRMDP2_-22" value="" style="endArrow=block;dashed=1;endFill=0;endSize=12;html=1;rounded=0;exitX=0.607;exitY=-0.01;exitDx=0;exitDy=0;exitPerimeter=0;entryX=0.5;entryY=1.154;entryDx=0;entryDy=0;entryPerimeter=0;" parent="1" source="3gSHG1WFgtymDXRMDP2_-16" target="3gSHG1WFgtymDXRMDP2_-5" edge="1">
          <mxGeometry width="160" relative="1" as="geometry">
            <mxPoint x="355" y="360" as="sourcePoint" />
            <mxPoint x="300" y="250" as="targetPoint" />
          </mxGeometry>
        </mxCell>
        <mxCell id="3gSHG1WFgtymDXRMDP2_-23" value="OnlineCart" style="swimlane;fontStyle=1;align=center;verticalAlign=top;childLayout=stackLayout;horizontal=1;startSize=26;horizontalStack=0;resizeParent=1;resizeParentMax=0;resizeLast=0;collapsible=1;marginBottom=0;" parent="1" vertex="1">
          <mxGeometry x="500" y="150" width="160" height="60" as="geometry" />
        </mxCell>
        <mxCell id="3gSHG1WFgtymDXRMDP2_-25" value="" style="line;strokeWidth=1;fillColor=none;align=left;verticalAlign=middle;spacingTop=-1;spacingLeft=3;spacingRight=3;rotatable=0;labelPosition=right;points=[];portConstraint=eastwest;" parent="3gSHG1WFgtymDXRMDP2_-23" vertex="1">
          <mxGeometry y="26" width="160" height="8" as="geometry" />
        </mxCell>
        <mxCell id="3gSHG1WFgtymDXRMDP2_-26" value="CheckOut(IPaymentType)" style="text;strokeColor=none;fillColor=none;align=left;verticalAlign=top;spacingLeft=4;spacingRight=4;overflow=hidden;rotatable=0;points=[[0,0.5],[1,0.5]];portConstraint=eastwest;fontStyle=0" parent="3gSHG1WFgtymDXRMDP2_-23" vertex="1">
          <mxGeometry y="34" width="160" height="26" as="geometry" />
        </mxCell>
        <mxCell id="3gSHG1WFgtymDXRMDP2_-27" value="Use" style="endArrow=open;endSize=12;dashed=1;html=1;rounded=0;entryX=1;entryY=0.5;entryDx=0;entryDy=0;" parent="1" target="3gSHG1WFgtymDXRMDP2_-3" edge="1">
          <mxGeometry width="160" relative="1" as="geometry">
            <mxPoint x="500" y="189" as="sourcePoint" />
            <mxPoint x="480" y="270" as="targetPoint" />
          </mxGeometry>
        </mxCell>
      </root>
    </mxGraphModel>
  </diagram>
</mxfile>
